<?xml version="1.0" standalone="no"?>
<!DOCTYPE svg PUBLIC "-//W3C//DTD SVG 20010904//EN"
 "http://www.w3.org/TR/2001/REC-SVG-20010904/DTD/svg10.dtd">
<svg version="1.0" xmlns="http://www.w3.org/2000/svg"
 width="48.000000pt" height="48.000000pt" viewBox="0 0 48.000000 48.000000"
 preserveAspectRatio="xMidYMid meet">

<g transform="translate(0.000000,48.000000) scale(0.100000,-0.100000)"
fill="#000000" stroke="none">
<path d="M133 358 c-35 -25 -48 -51 -57 -115 -5 -37 -3 -44 18 -59 20 -12 23
-19 15 -33 -16 -24 47 -145 78 -149 22 -3 21 -2 -9 58 -16 34 -28 63 -26 65
12 12 81 -25 98 -52 25 -42 79 -73 126 -72 22 0 32 3 24 6 -8 3 -26 10 -40 15
-34 13 -13 23 63 33 59 7 78 24 30 26 l-28 1 28 11 c31 13 37 32 7 22 -12 -4
-28 -1 -37 7 -13 10 -17 10 -20 1 -3 -7 -16 -13 -30 -13 -14 0 -37 -7 -53 -16
-28 -17 -60 -14 -60 5 0 12 71 51 119 66 45 13 53 35 13 35 l-30 0 4 56 c2 48
0 59 -19 76 -60 52 -159 64 -214 26z m53 -56 c-12 -12 -18 8 -10 35 l8 28 4
-28 c2 -16 1 -31 -2 -35z m34 -37 c17 -21 5 -61 -21 -68 -30 -8 -48 2 -55 29
-8 30 11 54 41 54 12 0 28 -7 35 -15z m128 -28 c5 -40 -14 -59 -51 -51 -20 4
-27 3 -23 -5 4 -6 16 -11 27 -11 28 0 14 -18 -28 -35 -45 -19 -99 -7 -133 30
-26 28 -22 42 8 26 46 -24 92 -2 92 44 0 18 6 25 28 28 59 9 77 4 80 -26z m37
-57 c-27 -12 -43 -12 -25 0 8 5 22 9 30 9 10 0 8 -3 -5 -9z m5 -100 c0 -5 -12
-10 -27 -10 -22 0 -25 2 -13 10 20 13 40 13 40 0z"/>
<path d="M398 323 c-2 -5 -1 -33 3 -63 l6 -55 1 63 c2 57 -1 74 -10 55z"/>
</g>
</svg>
